opsz8_wght100_wdth50.ufo
<glyph name="A" format="2">
	<unicode hex="0041"/>
	<advance width="1295"/>
	<outline>
		<contour>
			<point x="-184.1588745117" y="0" type="line"/>
			<point x="-177.6616821289" y="100.9995117188" type="line"/>
			<point x="-7.335144043" y="124.9995117188" type="line"/>
			<point x="281.4967651367" y="568.8145141602" type="line"/>
			<point x="878.5424194336" y="1507" type="line"/>
			<point x="1053.0836791992" y="1499" type="line"/>
			<point x="1039.7556152344" y="661" type="line"/>
			<point x="1034.5931396484" y="132.9995117188" type="line"/>
			<point x="1216.44140625" y="98.9995117188" type="line"/>
			<point x="1198.2918701172" y="0" type="line"/>
			<point x="680.3656005859" y="0" type="line"/>
			<point x="687.5151367188" y="102.9995117188" type="line"/>
			<point x="868.3634033203" y="136.9995117188" type="line"/>
			<point x="883.6615600586" y="654" type="line"/>
			<point x="897.681640625" y="1205.3415527344" type="line"/>
			<point x="898.7137451172" y="1322.7160644531" type="line"/>
			<point x="894.7137451172" y="1322.7160644531" type="line"/>
			<point x="819.2647094727" y="1207.6995849609" type="line"/>
			<point x="375.2203979492" y="527.2224121094" type="line"/>
			<point x="127.7739257812" y="128.9995117188" type="line"/>
			<point x="307.2961425781" y="100.9995117188" type="line"/>
			<point x="300.7989501953" y="0" type="line"/>
		</contour>
		<contour>
			<point x="282.2415161133" y="463.7415161133" type="line"/>
			<point x="349.018371582" y="575.1103515625" type="line"/>
			<point x="625.1032104492" y="568.2215576172" type="line"/>
			<point x="589.4368286133" y="469.926574707" type="line"/>
		</contour>
		<contour>
			<point x="626.1790771484" y="568.2215576172" type="line"/>
			<point x="966.5241088867" y="576.6659545898" type="line"/>
			<point x="963.6025390625" y="467.6303100586" type="line"/>
			<point x="590.5126953125" y="469.926574707" type="line"/>
		</contour>
	</outline>
	<anchor name="bottom" x="523" y="0"/>
	<anchor name="ogonek" x="1098" y="0"/>
	<anchor name="top" x="954" y="1500"/>
	<anchor name="tonos" x="613" y="1500"/>
</glyph>
<glyph name="B" format="2">
	<unicode hex="0042"/>
	<advance width="1277"/>
	<outline>
		<contour>
			<point x="-44.8383178711" y="0" type="line"/>
			<point x="-38.5584106445" y="101.9995117188" type="line"/>
			<point x="140.2790527344" y="131.9995117188" type="line"/>
			<point x="262.9991455078" y="779" type="line"/>
			<point x="379.3192138672" y="1373.3205566406" type="line"/>
			<point x="175.7643432617" y="1397.3205566406" type="line"/>
			<point x="188.2485961914" y="1500" type="line"/>
			<point x="791.4251708984" y="1500" type="line" smooth="yes"/>
			<point x="988.6958618164" y="1500"/>
			<point x="1170.3999023438" y="1308"/>
			<point x="1164.9279785156" y="1163" type="qcurve" smooth="yes"/>
			<point x="1160.1779174805" y="1030"/>
			<point x="974.8684082031" y="831"/>
			<point x="855.3361816406" y="796" type="qcurve"/>
			<point x="854.8924560547" y="789" type="line"/>
			<point x="983.3388061523" y="758"/>
			<point x="1142.2102661133" y="553"/>
			<point x="1112.1854248047" y="399" type="qcurve" smooth="yes"/>
			<point x="1074.1605834961" y="205"/>
			<point x="769.8280029297" y="0"/>
			<point x="544.1361083984" y="0" type="qcurve" smooth="yes"/>
		</contour>
		<contour>
			<point x="312.5350952148" y="137.7763061523" type="line"/>
			<point x="328.1929321289" y="108.5169677734" type="line"/>
			<point x="487.0001831055" y="108.5169677734" type="line" smooth="yes"/>
			<point x="706.4296875" y="108.5169677734"/>
			<point x="911.1442871094" y="270"/>
			<point x="933.4754638672" y="410" type="qcurve" smooth="yes"/>
			<point x="955.806640625" y="548"/>
			<point x="812.4598388672" y="734.2601928711"/>
			<point x="642.9837646484" y="731.2601928711" type="qcurve" smooth="yes"/>
			<point x="429.5977172852" y="729.2601928711" type="line"/>
			<point x="419.8939819336" y="715.852722168" type="line"/>
		</contour>
		<contour>
			<point x="445.3493652344" y="845.740234375" type="line"/>
			<point x="451.793762207" y="834.1103515625" type="line"/>
			<point x="634.2297363281" y="834.1103515625" type="line" smooth="yes"/>
			<point x="786.5932617188" y="834.1103515625"/>
			<point x="975.7005615234" y="1010"/>
			<point x="981.084777832" y="1154" type="qcurve" smooth="yes"/>
			<point x="984.7471313477" y="1270"/>
			<point x="843.9060668945" y="1388.2610473633"/>
			<point x="705.8737182617" y="1387.2610473633" type="qcurve" smooth="yes"/>
			<point x="573.6162719727" y="1387.2610473633" type="line"/>
			<point x="539.7579345703" y="1368.0017089844" type="line"/>
		</contour>
	</outline>
	<anchor name="bottom" x="630" y="0"/>
	<anchor name="top" x="630" y="1500"/>
</glyph>
<glyph name="C" format="2">
	<unicode hex="0043"/>
	<advance width="1270"/>
	<outline>
		<contour>
			<point x="93.6772661754" y="880" type="qcurve" smooth="yes"/>
			<point x="178.6772661754" y="1224"/>
			<point x="698.852327561" y="1563.041015625"/>
			<point x="976.3733236547" y="1535.8576660156" type="qcurve" smooth="yes"/>
			<point x="1066.379671311" y="1527.8891601562"/>
			<point x="1212.8574829102" y="1483.7478637695"/>
			<point x="1255.9961547852" y="1463.9259033203" type="qcurve"/>
			<point x="1282.7608032227" y="1450.8299560547" type="line"/>
			<point x="1310.2426147461" y="1439.8299560547" type="line"/>
			<point x="1248.7438354492" y="1062.5338134766" type="line"/>
			<point x="1126.8248901367" y="1062.5338134766" type="line"/>
			<point x="1156.0473022461" y="1354.305480957" type="line"/>
			<point x="1124.1446533203" y="1374.9180908203"/>
			<point x="977.3931884766" y="1411.4318847656"/>
			<point x="930.2396240234" y="1411.3041992188" type="qcurve" smooth="yes"/>
			<point x="706.4845581055" y="1421.1243896484"/>
			<point x="343.2390947887" y="1143"/>
			<point x="271.2671709606" y="851" type="qcurve" smooth="yes"/>
			<point x="192.499775941" y="535"/>
			<point x="407.3571041417" y="140.2981567383"/>
			<point x="625.3837154699" y="96.9552612305" type="qcurve" smooth="yes"/>
			<point x="798.2525509191" y="68.1588745117"/>
			<point x="1060.638814027" y="171.4005126953"/>
			<point x="1142.7320147105" y="275.9565429688" type="qcurve"/>
			<point x="1177.390767152" y="250.2158813477" type="line"/>
			<point x="1183.9758501598" y="176.1059570312" type="line"/>
			<point x="1110.5098751378" y="60.0882568359"/>
			<point x="756.0653560949" y="-57.3177490234"/>
			<point x="559.1624346324" y="-17.8575439453" type="qcurve" smooth="yes"/>
			<point x="264.4583941051" y="48.0581054688"/>
			<point x="7.0299273082" y="531"/>
		</contour>
	</outline>
	<anchor name="bottom" x="596" y="0"/>
	<anchor name="top" x="906" y="1500"/>
</glyph>
<glyph name="D" format="2">
	<unicode hex="0044"/>
	<advance width="1511"/>
	<outline>
		<contour>
			<point x="-57.9785766602" y="0" type="line"/>
			<point x="-46.6986694336" y="101.9995117188" type="line"/>
			<point x="143.1387939453" y="128.9995117188" type="line"/>
			<point x="260.2322387695" y="756" type="line"/>
			<point x="384.458984375" y="1376.3205566406" type="line"/>
			<point x="180.4288330078" y="1397.3205566406" type="line"/>
			<point x="191.9126586914" y="1500" type="line"/>
			<point x="825.9733886719" y="1500" type="line" smooth="yes"/>
			<point x="1130.9397583008" y="1500"/>
			<point x="1445.2642211914" y="1095.2601318359"/>
			<point x="1400.6955566406" y="751" type="qcurve" smooth="yes"/>
			<point x="1357.2262573242" y="409.8219604492"/>
			<point x="861.87109375" y="0"/>
			<point x="537.3145751953" y="0" type="qcurve" smooth="yes"/>
		</contour>
		<contour>
			<point x="310.1696166992" y="132.3688354492" type="line"/>
			<point x="335.745300293" y="126.3688354492"/>
			<point x="516.8178100586" y="117.3688354492"/>
			<point x="573.4212036133" y="117.3688354492" type="qcurve" smooth="yes"/>
			<point x="806.6683959961" y="116.3688354492"/>
			<point x="1185.8214111328" y="456.2215576172"/>
			<point x="1223.7322998047" y="742" type="qcurve" smooth="yes"/>
			<point x="1263.3427124023" y="1045.0747070312"/>
			<point x="1024.7428588867" y="1380.4091796875"/>
			<point x="796.0545043945" y="1381.4091796875" type="qcurve" smooth="yes"/>
			<point x="730.6291503906" y="1381.4091796875"/>
			<point x="570.998046875" y="1372.4091796875"/>
			<point x="545.2443237305" y="1369.4091796875" type="qcurve"/>
			<point x="429.9817504883" y="754" type="line"/>
		</contour>
	</outline>
	<anchor name="bottom" x="686" y="0"/>
	<anchor name="center" x="448" y="754"/>
	<anchor name="top" x="827" y="1500"/>
	<anchor name="liga" x="1431" y="0"/>
</glyph>
<glyph name="E" format="2">
	<unicode hex="0045"/>
	<advance width="1181"/>
	<outline>
		<contour>
			<point x="-55.0464477539" y="0" type="line"/>
			<point x="-47.8861083984" y="100.9995117188" type="line"/>
			<point x="140.7556762695" y="126.9995117188" type="line"/>
			<point x="269.475769043" y="819" type="line"/>
			<point x="379.9158325195" y="1372.3205566406" type="line"/>
			<point x="178.241394043" y="1396.3205566406" type="line"/>
			<point x="189.8447875977" y="1500" type="line"/>
			<point x="1179.1305541992" y="1500" type="line"/>
			<point x="1145.1690673828" y="1153.2611694336" type="line"/>
			<point x="1042.4100341797" y="1153.2611694336" type="line"/>
			<point x="1027.2607421875" y="1385.5573120117" type="line"/>
			<point x="581.4878540039" y="1385.5573120117" type="line"/>
			<point x="546.4878540039" y="1359.5573120117" type="line"/>
			<point x="436.5986328125" y="794" type="line"/>
			<point x="308.5612792969" y="135.9613647461" type="line"/>
			<point x="335.5612792969" y="110.9613647461" type="line"/>
			<point x="861.2423095703" y="110.9613647461" type="line"/>
			<point x="988.5534057617" y="381.2575073242" type="line"/>
			<point x="1092.5524291992" y="381.2575073242" type="line"/>
			<point x="986.2786865234" y="0" type="line"/>
		</contour>
		<contour>
			<point x="365.2921142578" y="729.926574707" type="line"/>
			<point x="387.6341552734" y="826.3327636719" type="line"/>
			<point x="841.9224853516" y="835.6659545898" type="line"/>
			<point x="901.4087524414" y="983.962097168" type="line"/>
			<point x="1000.8076782227" y="983.962097168" type="line"/>
			<point x="913.7243652344" y="524.1121826172" type="line"/>
			<point x="805.7253417969" y="524.1121826172" type="line"/>
			<point x="819.3597412109" y="721.4083251953" type="line"/>
		</contour>
	</outline>
	<anchor name="bottom" x="518" y="0"/>
	<anchor name="ogonek" x="827" y="0"/>
	<anchor name="top" x="789" y="1500"/>
	<anchor name="tonos" x="81" y="1500"/>
</glyph>
<glyph name="F" format="2">
	<unicode hex="0046"/>
	<advance width="1074"/>
	<outline>
		<contour>
			<point x="-51.5098266602" y="0" type="line"/>
			<point x="-47.2299194336" y="102.9995117188" type="line"/>
			<point x="137.6514282227" y="125.9995117188" type="line"/>
			<point x="269.2515258789" y="819" type="line"/>
			<point x="377.6116333008" y="1373.3205566406" type="line"/>
			<point x="166.2128295898" y="1397.3205566406" type="line"/>
			<point x="178.6966552734" y="1500" type="line"/>
			<point x="1146.0661621094" y="1500" type="line"/>
			<point x="1109.390625" y="1179.9742431641" type="line"/>
			<point x="1004.7915039062" y="1179.9742431641" type="line"/>
			<point x="990.6525268555" y="1390.0386352539" type="line"/>
			<point x="576.9332275391" y="1388.0386352539" type="line"/>
			<point x="542.9332275391" y="1368.0386352539" type="line"/>
			<point x="438.7477416992" y="835" type="line"/>
			<point x="306.147644043" y="121.9995117188" type="line"/>
			<point x="501.6151733398" y="102.9995117188" type="line"/>
			<point x="494.4548339844" y="0" type="line"/>
		</contour>
		<contour>
			<point x="332" y="751" type="line"/>
			<point x="351" y="851" type="line"/>
			<point x="771.2269897461" y="814.147277832" type="line"/>
			<point x="845.0567626953" y="964.2961425781" type="line"/>
			<point x="943.0557861328" y="964.2961425781" type="line"/>
			<point x="871.1102905273" y="534.7038574219" type="line"/>
			<point x="774.1112670898" y="534.7038574219" type="line"/>
			<point x="768.9680786133" y="698.0008544922" type="line"/>
		</contour>
	</outline>
	<anchor name="bottom" x="578" y="0"/>
	<anchor name="top" x="622" y="1500"/>
</glyph>
<glyph name="G" format="2">
	<unicode hex="0047"/>
	<advance width="1361"/>
	<outline>
		<contour>
			<point x="93.5562879987" y="856" type="qcurve" smooth="yes"/>
			<point x="187.5562879987" y="1220"/>
			<point x="698.4911024518" y="1534.7222290039"/>
			<point x="935.9527113385" y="1527.5718994141" type="qcurve" smooth="yes"/>
			<point x="1017.4676649518" y="1523.1198730469"/>
			<point x="1175.2469007917" y="1479.8967895508"/>
			<point x="1218.3839857526" y="1449.4288330078" type="qcurve" smooth="yes"/>
			<point x="1242.4361278854" y="1435.4287109375" type="line"/>
			<point x="1284.310212358" y="1416" type="line"/>
			<point x="1221.5805981002" y="1067.7038574219" type="line"/>
			<point x="1096.6616527877" y="1067.7038574219" type="line"/>
			<point x="1119.5384838424" y="1314.4233398438" type="line"/>
			<point x="1094.829054112" y="1344.0531005859"/>
			<point x="959.0702040143" y="1404.1583251953"/>
			<point x="888.0719129987" y="1406.3146972656" type="qcurve" smooth="yes"/>
			<point x="701.6586439557" y="1412.8297729492"/>
			<point x="342.8590223737" y="1133"/>
			<point x="268.0129530378" y="826" type="qcurve" smooth="yes"/>
			<point x="194.8928968854" y="521.1481323242"/>
			<point x="362.4143202253" y="129.298034668"/>
			<point x="538.6765272565" y="92.1192016602" type="qcurve" smooth="yes"/>
			<point x="639.4750502057" y="71.4967651367"/>
			<point x="867.8460829206" y="123.1464233398"/>
			<point x="955.2061293073" y="165.4422607422" type="qcurve"/>
			<point x="1035.2588817916" y="555.7604980469" type="line"/>
			<point x="871.4140331588" y="577.8804931641" type="line"/>
			<point x="887.0169994674" y="690" type="line"/>
			<point x="1345.6808178268" y="690" type="line"/>
			<point x="1325.5987255416" y="577.7604980469" type="line"/>
			<point x="1199.1284496627" y="555.7604980469" type="line"/>
			<point x="1116.2486889205" y="132.3615722656" type="line"/>
			<point x="1055.0901014753" y="110.6807861328" type="line"/>
			<point x="961.5361463971" y="50.5872192383"/>
			<point x="676.1410658307" y="-49.2861328125"/>
			<point x="502.7973768659" y="-23.2861328125" type="qcurve" smooth="yes"/>
			<point x="243.8458998151" y="14.1520385742"/>
			<point x="-1.4437120013" y="490"/>
		</contour>
	</outline>
	<anchor name="bottom" x="667" y="0"/>
	<anchor name="top" x="907" y="1492"/>
</glyph>
<glyph name="H" format="2">
	<unicode hex="0048"/>
	<advance width="1572"/>
	<outline>
		<contour>
			<point x="-58.7229003906" y="0" type="line"/>
			<point x="-48.4429931641" y="99.9995117188" type="line"/>
			<point x="141.4379272461" y="130.9995117188" type="line"/>
			<point x="264.1580200195" y="796" type="line"/>
			<point x="380.278137207" y="1372.0006103516" type="line"/>
			<point x="177.0436401367" y="1398.2005615234" type="line"/>
			<point x="188.1683349609" y="1500" type="line"/>
			<point x="735.7779541016" y="1500" type="line"/>
			<point x="715.2576293945" y="1399.2005615234" type="line"/>
			<point x="541.4954223633" y="1372.0006103516" type="line"/>
			<point x="429.5341796875" y="767" type="line"/>
			<point x="308.8140869141" y="130.9995117188" type="line"/>
			<point x="492.9298706055" y="99.9995117188" type="line"/>
			<point x="478.0455932617" y="0" type="line"/>
		</contour>
		<contour>
			<point x="346" y="738" type="line"/>
			<point x="367" y="855" type="line"/>
			<point x="802.7240600586" y="845.8879394531" type="line"/>
			<point x="1237.8006591797" y="846.48046875" type="line"/>
			<point x="1211.6898803711" y="730.1859130859" type="line"/>
			<point x="771.9095458984" y="735.7784423828" type="line"/>
		</contour>
		<contour>
			<point x="836.9262695312" y="0" type="line"/>
			<point x="848.2061767578" y="99.9995117188" type="line"/>
			<point x="1030.087097168" y="130.9995117188" type="line"/>
			<point x="1145.8071899414" y="773" type="line"/>
			<point x="1254.9273071289" y="1371.0006103516" type="line"/>
			<point x="1082.6928100586" y="1398.2005615234" type="line"/>
			<point x="1093.8175048828" y="1500" type="line"/>
			<point x="1627.4664306641" y="1500" type="line"/>
			<point x="1608.946105957" y="1398.2005615234" type="line"/>
			<point x="1423.3034667969" y="1371.0006103516" type="line"/>
			<point x="1312.9300537109" y="755" type="line"/>
			<point x="1194.2099609375" y="130.9995117188" type="line"/>
			<point x="1387.2061767578" y="99.9995117188" type="line"/>
			<point x="1372.3218994141" y="0" type="line"/>
		</contour>
	</outline>
	<anchor name="bottom" x="607" y="0"/>
	<anchor name="center" x="820" y="1079"/>
	<anchor name="top" x="950" y="1500"/>
	<anchor name="tonos" x="81" y="1500"/>
	<anchor name="cy_descender" x="1399" y="100"/>
</glyph>
<glyph name="K" format="2">
	<unicode hex="004B"/>
	<advance width="1232"/>
	<outline>
		<contour>
			<point x="-49.4426879883" y="0" type="line"/>
			<point x="-47.5584106445" y="100.9995117188" type="line"/>
			<point x="142.2790527344" y="128.9995117188" type="line"/>
			<point x="274.1990966797" y="794" type="line"/>
			<point x="381.6391601562" y="1370.3205566406" type="line"/>
			<point x="183.0842895508" y="1395.3205566406" type="line"/>
			<point x="192.4485473633" y="1500" type="line"/>
			<point x="738.76953125" y="1500" type="line"/>
			<point x="722.4052734375" y="1395.3205566406" type="line"/>
			<point x="548.1221923828" y="1370.3205566406" type="line"/>
			<point x="436.4420166016" y="782" type="line"/>
			<point x="314.1354370117" y="129.9995117188" type="line"/>
			<point x="493.7337646484" y="99.9995117188" type="line"/>
			<point x="483.8494873047" y="0" type="line"/>
		</contour>
		<contour>
			<point x="306.8737792969" y="490.1906738281" type="line"/>
			<point x="335.4656982422" y="655.9061279297" type="line"/>
			<point x="961.8090820312" y="1380.3205566406" type="line"/>
			<point x="836.5370483398" y="1392.3205566406" type="line"/>
			<point x="852.9013061523" y="1500" type="line"/>
			<point x="1271.9178466797" y="1500" type="line"/>
			<point x="1254.5535888672" y="1393.3205566406" type="line"/>
			<point x="1090.1401367188" y="1376.3205566406" type="line"/>
		</contour>
		<contour>
			<point x="541.731628418" y="824.4213867188" type="line"/>
			<point x="662.5241699219" y="956.4663085938" type="line"/>
			<point x="1002.7662963867" y="124.9995117188" type="line"/>
			<point x="1163.7775878906" y="102.9995117188" type="line"/>
			<point x="1149.8933105469" y="0" type="line"/>
			<point x="665.3910522461" y="0" type="line"/>
			<point x="678.2753295898" y="102.9995117188" type="line"/>
			<point x="828.5365600586" y="124.9995117188" type="line"/>
		</contour>
	</outline>
	<anchor name="bottom" x="607" y="0"/>
	<anchor name="top" x="896" y="1500"/>
	<anchor name="kai_tail" x="1201" y="100"/>
</glyph>
<glyph name="L" format="2">
	<unicode hex="004C"/>
	<advance width="1102"/>
	<outline>
		<contour>
			<point x="-54.0145874023" y="0" type="line"/>
			<point x="-45.8907470703" y="101.9995117188" type="line"/>
			<point x="141.9467163086" y="129.9995117188" type="line"/>
			<point x="268.1067504883" y="794" type="line"/>
			<point x="381.3068237305" y="1372.4405517578" type="line"/>
			<point x="180.436706543" y="1397.4405517578" type="line"/>
			<point x="190.6809692383" y="1500" type="line"/>
			<point x="740.3342285156" y="1500" type="line"/>
			<point x="724.0899658203" y="1397.4405517578" type="line"/>
			<point x="553.1763916016" y="1372.4405517578" type="line"/>
			<point x="431.9763183594" y="775" type="line"/>
			<point x="308.4990234375" y="135.9613647461" type="line"/>
			<point x="334.4990234375" y="106.9613647461" type="line"/>
			<point x="822.2778930664" y="106.9613647461" type="line"/>
			<point x="948.0881958008" y="379.8236083984" type="line"/>
			<point x="1060.7271118164" y="379.8236083984" type="line"/>
			<point x="943.6583251953" y="0" type="line"/>
		</contour>
	</outline>
	<anchor name="bottom" x="535" y="0"/>
	<anchor name="centerright" x="755" y="750"/>
	<anchor name="top" x="878" y="1500"/>
	<anchor name="topright" x="804" y="1001"/>
	<anchor name="center" x="397" y="750"/>
	<anchor name="liga" x="1104" y="0"/>
</glyph>
<glyph name="M" format="2">
	<unicode hex="004D"/>
	<advance width="1716"/>
	<outline>
		<contour>
			<point x="-47.9194335938" y="0" type="line"/>
			<point x="-35.03515625" y="100.9995117188" type="line"/>
			<point x="157.4436035156" y="133.9995117188" type="line"/>
			<point x="275.5547485352" y="748" type="line"/>
			<point x="397.8037109375" y="1375.3205566406" type="line"/>
			<point x="186.6836547852" y="1396.3205566406" type="line"/>
			<point x="197.0479125977" y="1500" type="line"/>
			<point x="613.0856933594" y="1500" type="line"/>
			<point x="691.5598144531" y="748.1965942383" type="line"/>
			<point x="815" y="327" type="line"/>
			<point x="831" y="213" type="line"/>
			<point x="841" y="213" type="line"/>
			<point x="900" y="327" type="line"/>
			<point x="1031.4479980469" y="770.4885864258" type="line"/>
			<point x="1369.7742919922" y="1500" type="line"/>
			<point x="1765.8563232422" y="1500" type="line"/>
			<point x="1744.5755615234" y="1396.3205566406" type="line"/>
			<point x="1566.4555053711" y="1372.3205566406" type="line"/>
			<point x="1456.0954589844" y="753" type="line"/>
			<point x="1333.9353027344" y="125.9995117188" type="line"/>
			<point x="1521.2510375977" y="101.9995117188" type="line"/>
			<point x="1508.3667602539" y="0" type="line"/>
			<point x="974.2678833008" y="0" type="line"/>
			<point x="985.1521606445" y="102.9995117188" type="line"/>
			<point x="1169.0657348633" y="121.9995117188" type="line"/>
			<point x="1295.3459472656" y="754" type="line"/>
			<point x="1580" y="1244" type="line"/>
			<point x="1606" y="1363" type="line"/>
			<point x="1597" y="1365" type="line"/>
			<point x="1539" y="1258" type="line"/>
			<point x="1115.5753173828" y="722.2677001953" type="line"/>
			<point x="762.1389160156" y="-7" type="line"/>
			<point x="607.8267822266" y="-7" type="line"/>
			<point x="536.9446411133" y="715.6439208984" type="line"/>
			<point x="499" y="1249" type="line"/>
			<point x="485" y="1357" type="line"/>
			<point x="474" y="1355" type="line"/>
			<point x="456" y="1235" type="line"/>
			<point x="378.7694091797" y="753" type="line"/>
			<point x="266.1974487305" y="133.9995117188" type="line"/>
			<point x="444.9914550781" y="100.9995117188" type="line"/>
			<point x="426.7115478516" y="0" type="line"/>
		</contour>
	</outline>
	<anchor name="bottom" x="768" y="0"/>
	<anchor name="top" x="1048" y="1500"/>
</glyph>
<glyph name="N" format="2">
	<unicode hex="004E"/>
	<advance width="1386"/>
	<outline>
		<contour>
			<point x="-55.3902587891" y="0" type="line"/>
			<point x="-47.5059814453" y="103.9995117188" type="line"/>
			<point x="132.3314819336" y="130.9995117188" type="line"/>
			<point x="258.2515258789" y="777" type="line"/>
			<point x="373.6915893555" y="1371.3205566406" type="line"/>
			<point x="179.3323974609" y="1398.3205566406" type="line"/>
			<point x="191.6966552734" y="1500" type="line"/>
			<point x="549.2026367188" y="1500" type="line"/>
			<point x="749.2172851562" y="815.9957885742" type="line"/>
			<point x="958" y="418" type="line"/>
			<point x="990" y="317" type="line"/>
			<point x="1001" y="319" type="line"/>
			<point x="1024" y="440" type="line"/>
			<point x="1025.0697021484" y="761" type="line"/>
			<point x="1141.2697753906" y="1371.2005615234" type="line"/>
			<point x="973.7583618164" y="1398.2005615234" type="line"/>
			<point x="987.7213134766" y="1500" type="line"/>
			<point x="1440.467590332" y="1500" type="line"/>
			<point x="1427.5046386719" y="1397.2005615234" type="line"/>
			<point x="1243.7867431641" y="1370.2005615234" type="line"/>
			<point x="1126.7547607422" y="751" type="line"/>
			<point x="984.5866699219" y="-8" type="line"/>
			<point x="831.0972290039" y="-8" type="line"/>
			<point x="600.5231323242" y="765.7702636719" type="line"/>
			<point x="507" y="1220" type="line"/>
			<point x="471" y="1324" type="line"/>
			<point x="461" y="1321" type="line"/>
			<point x="442" y="1199" type="line"/>
			<point x="358.6203613281" y="761" type="line"/>
			<point x="239.7003173828" y="126.9995117188" type="line"/>
			<point x="397.1356201172" y="100.9995117188" type="line"/>
			<point x="385.2513427734" y="0" type="line"/>
		</contour>
	</outline>
	<anchor name="bottom" x="640" y="0"/>
	<anchor name="top" x="884" y="1500"/>
	<anchor name="engtail" x="1041" y="0"/>
	<anchor name="liga" x="1432" y="0"/>
</glyph>
<glyph name="O" format="2">
	<unicode hex="004F"/>
	<advance width="1555"/>
	<outline>
		<contour>
			<point x="106.8972176501" y="891" type="qcurve" smooth="yes"/>
			<point x="185.8972176501" y="1223"/>
			<point x="700.3235482165" y="1578.0971069336"/>
			<point x="976.0463875719" y="1519.5718994141" type="qcurve" smooth="yes"/>
			<point x="1252.8913582751" y="1459.7899780273"/>
			<point x="1507.5490120837" y="1020.3733520508"/>
			<point x="1421.5490120837" y="681" type="qcurve" smooth="yes"/>
			<point x="1328.5490120837" y="314"/>
			<point x="841.3186448575" y="-81.3268596238"/>
			<point x="541.5386971423" y="-25.2861328125" type="qcurve" smooth="yes"/>
			<point x="250.0718264781" y="30.0224290106"/>
			<point x="20.8972176501" y="529"/>
		</contour>
		<contour>
			<point x="278.6071785876" y="854" type="qcurve" smooth="yes"/>
			<point x="210.4005745837" y="558.5402832031"/>
			<point x="362.9157113024" y="129.2830200195"/>
			<point x="574.9457405993" y="85.0453491211" type="qcurve" smooth="yes"/>
			<point x="807.0649422594" y="36.9066772461"/>
			<point x="1171.1248177477" y="403.0144042969"/>
			<point x="1245.345642943" y="704" type="qcurve" smooth="yes"/>
			<point x="1317.3799447009" y="997.849609375"/>
			<point x="1144.0629280993" y="1350.2209472656"/>
			<point x="929.1318978259" y="1398.0922851562" type="qcurve" smooth="yes"/>
			<point x="709.0325325915" y="1447.5972900391"/>
			<point x="349.2048348376" y="1163.0024414062"/>
		</contour>
	</outline>
	<anchor name="bottom" x="612" y="0"/>
	<anchor name="center" x="765" y="756"/>
	<anchor name="ogonek" x="844" y="0"/>
	<anchor name="top" x="906" y="1500"/>
	<anchor name="topright" x="1044" y="1500"/>
	<anchor name="tonos" x="230" y="1500"/>
	<anchor name="_yu_dash" x="174" y="795"/>
</glyph>
<glyph name="P" format="2">
	<unicode hex="0050"/>
	<advance width="1236"/>
	<outline>
		<contour>
			<point x="-54.7622070312" y="0" type="line"/>
			<point x="-50.8779296875" y="103.9995117188" type="line"/>
			<point x="138.0791015625" y="130.9995117188" type="line"/>
			<point x="269.3724975586" y="796" type="line"/>
			<point x="380.4392089844" y="1373.3205566406" type="line"/>
			<point x="181.9604492188" y="1394.3205566406" type="line"/>
			<point x="190.5638427734" y="1500" type="line"/>
			<point x="742.0633544922" y="1500" type="line" smooth="yes"/>
			<point x="986.4187011719" y="1500"/>
			<point x="1221.1942138672" y="1254"/>
			<point x="1188.7008056641" y="1034" type="qcurve" smooth="yes"/>
			<point x="1159.2073974609" y="833"/>
			<point x="871.7113037109" y="610.9274291992"/>
			<point x="630.0662231445" y="610.9274291992" type="qcurve" smooth="yes"/>
			<point x="516.7362670898" y="610.9274291992"/>
			<point x="374.2242431641" y="631.0093383789"/>
			<point x="327.5462036133" y="643.4417724609" type="qcurve"/>
			<point x="349.7340698242" y="752.7203369141" type="line"/>
			<point x="404.830871582" y="739.2401123047"/>
			<point x="526.5289916992" y="719"/>
			<point x="600.8472900391" y="719" type="qcurve" smooth="yes"/>
			<point x="779.7171630859" y="719"/>
			<point x="992.2309570312" y="866"/>
			<point x="1016.2309570312" y="1033" type="qcurve" smooth="yes"/>
			<point x="1039.2309570312" y="1193"/>
			<point x="878.5530395508" y="1379.8535766602"/>
			<point x="686.6213378906" y="1379.8535766602" type="qcurve" smooth="yes"/>
			<point x="571.556640625" y="1379.8535766602" type="line"/>
			<point x="540.4020385742" y="1353.6815185547" type="line"/>
			<point x="430.8687133789" y="764" type="line"/>
			<point x="309.5753173828" y="130.9995117188" type="line"/>
			<point x="497.9671630859" y="100.9995117188" type="line"/>
			<point x="481.0828857422" y="0" type="line"/>
		</contour>
	</outline>
	<anchor name="bottom" x="634" y="0"/>
	<anchor name="top" x="634" y="1500"/>
</glyph>
<glyph name="Q" format="2">
	<unicode hex="0051"/>
	<advance width="1547"/>
	<outline>
		<contour>
			<point x="97.4608764648" y="891" type="qcurve" smooth="yes"/>
			<point x="176.4608764648" y="1223"/>
			<point x="689.1728515625" y="1578.0971069336"/>
			<point x="964.895690918" y="1519.5718994141" type="qcurve" smooth="yes"/>
			<point x="1241.7406616211" y="1459.7899780273"/>
			<point x="1498.7600097656" y="1020"/>
			<point x="1412.1126708984" y="681" type="qcurve" smooth="yes"/>
			<point x="1318.4653320312" y="314"/>
			<point x="814.0289306641" y="-75.268371582"/>
			<point x="537.110534668" y="-24.8575439453" type="qcurve" smooth="yes"/>
			<point x="258.4547119141" y="26.5980834961"/>
			<point x="11.4608764648" y="529"/>
		</contour>
		<contour>
			<point x="270.1708374023" y="854" type="qcurve" smooth="yes"/>
			<point x="201.7608642578" y="558.5402832031"/>
			<point x="355.8173217773" y="125.2508544922"/>
			<point x="567.5305175781" y="83.6963500977" type="qcurve" smooth="yes"/>
			<point x="790.6497192383" y="40.5576782227"/>
			<point x="1167.2445068359" y="415.1160888672"/>
			<point x="1236.9093017578" y="704" type="qcurve" smooth="yes"/>
			<point x="1308.3875732422" y="997.6462402344"/>
			<point x="1133.5953979492" y="1351.2209472656"/>
			<point x="918.9812011719" y="1398.0922851562" type="qcurve" smooth="yes"/>
			<point x="709.8818359375" y="1443.5972900391"/>
			<point x="339.971862793" y="1156.0024414062"/>
		</contour>
		<contour>
			<point x="382" y="-3" type="qcurve"/>
			<point x="865.8189697266" y="-237.7100830078" type="line" smooth="yes"/>
			<point x="913.10546875" y="-260.3817138672"/>
			<point x="1010.9232788086" y="-256.1580200195"/>
			<point x="1082.4869384766" y="-151.6161499023" type="qcurve"/>
			<point x="1154.8638305664" y="-207.7557983398" type="line"/>
			<point x="1100.2881469727" y="-319.5095214844"/>
			<point x="959.4581298828" y="-435.6323852539"/>
			<point x="867.2443847656" y="-440.4859619141" type="qcurve"/>
			<point x="421.912109375" y="-213.6415405273" type="line"/>
			<point x="361.7959594727" y="-222.2008056641"/>
			<point x="262.2435302734" y="-242.5205688477"/>
			<point x="204.8318481445" y="-275.3513793945" type="qcurve"/>
			<point x="149.5358276367" y="-196.4786987305" type="line"/>
			<point x="202.6360473633" y="-131.3793334961"/>
			<point x="296" y="5"/>
		</contour>
		<contour>
			<point x="320" y="-53" type="line"/>
			<point x="426" y="75"/>
			<point x="534.4243774414" y="166.5431518555"/>
			<point x="597.4163818359" y="258.860534668" type="qcurve" smooth="yes"/>
			<point x="606.3272705078" y="271.2832641602"/>
			<point x="654" y="332"/>
			<point x="625.7931518555" y="292.2770385742" type="qcurve"/>
			<point x="630.4005126953" y="288.3298339844"/>
			<point x="706.1860961914" y="250.1098632812"/>
			<point x="711.8677368164" y="238.0881958008" type="qcurve"/>
			<point x="707.0756835938" y="224.9476928711"/>
			<point x="692.4540405273" y="207.6138916016"/>
			<point x="683.5208740234" y="196.4428710938" type="qcurve" smooth="yes"/>
			<point x="633.0469360352" y="133.360534668"/>
			<point x="506" y="28"/>
			<point x="401" y="-88" type="qcurve"/>
		</contour>
	</outline>
	<anchor name="bottom" x="832" y="0"/>
	<anchor name="top" x="832" y="1500"/>
</glyph>
<glyph name="R" format="2">
	<unicode hex="0052"/>
	<advance width="1269"/>
	<outline>
		<contour>
			<point x="-62.8101806641" y="0" type="line"/>
			<point x="-55.5302734375" y="101.9995117188" type="line"/>
			<point x="138.3071899414" y="129.9995117188" type="line"/>
			<point x="262.6407470703" y="796" type="line"/>
			<point x="375.8939819336" y="1375.3205566406" type="line"/>
			<point x="173.4951782227" y="1401.3205566406" type="line"/>
			<point x="182.9790039062" y="1500" type="line"/>
			<point x="779.7781982422" y="1500" type="line" smooth="yes"/>
			<point x="974.9307861328" y="1500"/>
			<point x="1216.1812133789" y="1287"/>
			<point x="1193.0686645508" y="1103" type="qcurve" smooth="yes"/>
			<point x="1169.7905273438" y="908"/>
			<point x="868.4120483398" y="705.5933837891"/>
			<point x="695.2086791992" y="705.5933837891" type="qcurve" smooth="yes"/>
			<point x="614.6640014648" y="705.5933837891"/>
			<point x="401.2677001953" y="714.5933837891"/>
			<point x="346.1608276367" y="721.0867919922" type="qcurve"/>
			<point x="365.4538574219" y="805.2215576172" type="line"/>
			<point x="457.9965209961" y="805.2215576172" type="line"/>
			<point x="641.8803710938" y="805.2215576172" type="line" smooth="yes"/>
			<point x="823.8933105469" y="805.2215576172"/>
			<point x="1007.8272705078" y="960"/>
			<point x="1022.1054077148" y="1100" type="qcurve" smooth="yes"/>
			<point x="1037.1054077148" y="1241"/>
			<point x="887.8579101562" y="1387.5573120117"/>
			<point x="759.147277832" y="1387.5573120117" type="qcurve" smooth="yes"/>
			<point x="565.3736572266" y="1387.5573120117" type="line"/>
			<point x="539.8283691406" y="1362.4978027344" type="line"/>
			<point x="419.6435546875" y="754" type="line"/>
			<point x="306.9234619141" y="130.9995117188" type="line"/>
			<point x="491.1196289062" y="99.9995117188" type="line"/>
			<point x="475.8397216797" y="0" type="line"/>
		</contour>
		<contour>
			<point x="638.71875" y="737.0307006836" type="line"/>
			<point x="798.1080932617" y="759" type="line"/>
			<point x="807.8299560547" y="697" type="line" smooth="yes"/>
			<point x="848.9573974609" y="444.5433959961"/>
			<point x="965.5905761719" y="101.2860107422"/>
			<point x="1138.5354003906" y="97.8795166016" type="qcurve"/>
			<point x="1129.0555419922" y="0" type="line"/>
			<point x="1037.5859375" y="3" type="line" smooth="yes"/>
			<point x="839.3247680664" y="10"/>
			<point x="693.2575683594" y="410.4760742188"/>
			<point x="647.0845947266" y="693" type="qcurve" smooth="yes"/>
		</contour>
	</outline>
	<anchor name="bottom" x="573" y="0"/>
	<anchor name="top" x="670" y="1500"/>
</glyph>
<glyph name="S" format="2">
	<unicode hex="0053"/>
	<advance width="968"/>
	<outline>
		<contour>
			<point x="-74.163269043" y="13.3118896484" type="line"/>
			<point x="9.7855834961" y="483.2961425781" type="line"/>
			<point x="119.7445678711" y="483.2961425781" type="line"/>
			<point x="105.6674804688" y="362.5169677734" type="line" smooth="yes"/>
			<point x="93.587890625" y="253.5169677734"/>
			<point x="240.1184082031" y="84.7758789062"/>
			<point x="392.0946044922" y="84.7758789062" type="qcurve" smooth="yes"/>
			<point x="531.0585327148" y="84.7758789062"/>
			<point x="726.276184082" y="228.7398071289"/>
			<point x="742.276184082" y="366.5547485352" type="qcurve" smooth="yes"/>
			<point x="756.276184082" y="503.2908935547"/>
			<point x="585.858581543" y="627.1641235352"/>
			<point x="420.2020263672" y="751.4353027344" type="qcurve" smooth="yes"/>
			<point x="298.0912475586" y="833.4593505859"/>
			<point x="146.2328491211" y="1061.7965087891"/>
			<point x="169.2328491211" y="1225.9275512695" type="qcurve" smooth="yes"/>
			<point x="191.2328491211" y="1353.19921875"/>
			<point x="435.3969116211" y="1517"/>
			<point x="575.2815551758" y="1517" type="qcurve" smooth="yes"/>
			<point x="684.5659179688" y="1517"/>
			<point x="845.7247924805" y="1441.9436035156"/>
			<point x="876.649230957" y="1413.8823242188" type="qcurve"/>
			<point x="916.2189331055" y="1505.2479248047" type="line"/>
			<point x="1008.8180541992" y="1486.9281005859" type="line"/>
			<point x="944.8692016602" y="1067.7308959961" type="line"/>
			<point x="834.270324707" y="1067.7308959961" type="line"/>
			<point x="846.9993286133" y="1204.4741210938" type="line"/>
			<point x="863.8789672852" y="1291.8742675781"/>
			<point x="691.15625" y="1396.9647827148"/>
			<point x="568.0811767578" y="1396.9647827148" type="qcurve" smooth="yes"/>
			<point x="468.4841308594" y="1396.9647827148"/>
			<point x="332.1012573242" y="1301.3184204102"/>
			<point x="312.3793945312" y="1221.1474609375" type="qcurve" smooth="yes"/>
			<point x="290.6575317383" y="1098.3562011719"/>
			<point x="413.0280151367" y="982.7721557617"/>
			<point x="565.9574584961" y="883.0134277344" type="qcurve" smooth="yes"/>
			<point x="716.0681152344" y="769.9655761719"/>
			<point x="904.5307006836" y="547.8901367188"/>
			<point x="884.2525634766" y="356.3206176758" type="qcurve" smooth="yes"/>
			<point x="865.3477783203" y="184.1068725586"/>
			<point x="610.7045288086" y="-19"/>
			<point x="408.889465332" y="-19" type="qcurve" smooth="yes"/>
			<point x="298.5927734375" y="-19"/>
			<point x="118.9990234375" y="51.0391845703"/>
			<point x="70.5255737305" y="97.4404296875" type="qcurve"/>
			<point x="13.7930297852" y="-13.0079345703" type="line"/>
		</contour>
	</outline>
	<anchor name="bottom" x="399" y="0"/>
	<anchor name="top" x="679" y="1500"/>
</glyph>
<glyph name="V" format="2">
	<unicode hex="0056"/>
	<advance width="1227"/>
	<outline>
		<contour>
			<point x="32.2542114258" y="1410.3205566406" type="line"/>
			<point x="43.5349731445" y="1500" type="line"/>
			<point x="573.4106445312" y="1500" type="line"/>
			<point x="562.1298828125" y="1410.3205566406" type="line"/>
			<point x="375.3572998047" y="1384.3205566406" type="line"/>
			<point x="420.8176879883" y="813.6466674805" type="line"/>
			<point x="458.5094604492" y="314.1604003906" type="line"/>
			<point x="466.3005981445" y="171.6658325195" type="line"/>
			<point x="476.3005981445" y="171.6658325195" type="line"/>
			<point x="545.5478515625" y="311.829284668" type="line"/>
			<point x="806.0802001953" y="831.8909912109" type="line"/>
			<point x="1078.5720214844" y="1373.3205566406" type="line"/>
			<point x="887.9232788086" y="1410.3205566406" type="line"/>
			<point x="903.2875366211" y="1500" type="line"/>
			<point x="1393.4312133789" y="1500" type="line"/>
			<point x="1381.2150878906" y="1410.3205566406" type="line"/>
			<point x="1190.4064331055" y="1376.3205566406" type="line"/>
			<point x="882.8731689453" y="770.4415893555" type="line"/>
			<point x="490.7065429688" y="-10.4287109375" type="line"/>
			<point x="330.258605957" y="-10.4287109375" type="line"/>
			<point x="263.2498779297" y="776.7889404297" type="line"/>
			<point x="217.5911254883" y="1384.3205566406" type="line"/>
		</contour>
	</outline>
	<anchor name="bottom" x="373" y="0"/>
	<anchor name="top" x="743" y="1500"/>
</glyph>
<glyph name="W" format="2">
	<unicode hex="0057"/>
	<advance width="1723"/>
	<outline>
		<contour>
			<point x="39.9643554688" y="1410.3205566406" type="line"/>
			<point x="48.9638061523" y="1500" type="line"/>
			<point x="563.0814208984" y="1500" type="line"/>
			<point x="555.0819702148" y="1410.3205566406" type="line"/>
			<point x="381.5489501953" y="1382.3205566406" type="line"/>
			<point x="388.5903930664" y="759.1893920898" type="line"/>
			<point x="410" y="400" type="line"/>
			<point x="410" y="271" type="line"/>
			<point x="427" y="271" type="line"/>
			<point x="497" y="400" type="line"/>
			<point x="660.3946533203" y="691.4063720703" type="line"/>
			<point x="913" y="1121" type="line"/>
			<point x="832.33203125" y="1382.2805175781" type="line"/>
			<point x="680.8751220703" y="1411.2805175781" type="line"/>
			<point x="689.3950195312" y="1500" type="line"/>
			<point x="1183.4094848633" y="1500" type="line"/>
			<point x="1171.1287231445" y="1410.3205566406" type="line"/>
			<point x="994.0739746094" y="1382.3205566406" type="line"/>
			<point x="1020.5559082031" y="773.7565307617" type="line"/>
			<point x="1094" y="400" type="line"/>
			<point x="1094" y="271" type="line"/>
			<point x="1111" y="271" type="line"/>
			<point x="1177" y="400" type="line"/>
			<point x="1301.5219726562" y="750.9042358398" type="line"/>
			<point x="1563.9616699219" y="1373.3205566406" type="line"/>
			<point x="1383.6459350586" y="1406.3205566406" type="line"/>
			<point x="1404.0101928711" y="1500" type="line"/>
			<point x="1888.7570800781" y="1500" type="line"/>
			<point x="1972" y="1385" type="line"/>
			<point x="1690.8598022461" y="1377.2005615234" type="line"/>
			<point x="1393.5932006836" y="711.2054443359" type="line"/>
			<point x="1053.978515625" y="-8.4287109375" type="line"/>
			<point x="903.149597168" y="-8.4287109375" type="line"/>
			<point x="923" y="805" type="line"/>
			<point x="921" y="934" type="line"/>
			<point x="911" y="934" type="line"/>
			<point x="844" y="805" type="line"/>
			<point x="400.5562133789" y="-8.4287109375" type="line"/>
			<point x="251.1141357422" y="-8.4287109375" type="line"/>
			<point x="235.5372314453" y="732.8095092773" type="line"/>
			<point x="214.8126220703" y="1381.3205566406" type="line"/>
		</contour>
	</outline>
	<anchor name="bottom" x="691" y="0"/>
	<anchor name="top" x="981" y="1500"/>
</glyph>
<glyph name="X" format="2">
	<unicode hex="0058"/>
	<advance width="1254"/>
	<outline>
		<contour>
			<point x="-158.5036010742" y="0" type="line"/>
			<point x="-139.6193237305" y="99.9995117188" type="line"/>
			<point x="44.794128418" y="124.9995117188" type="line"/>
			<point x="513" y="764" type="line"/>
			<point x="344.2095947266" y="1379.3205566406" type="line"/>
			<point x="175.0352783203" y="1407.3205566406" type="line"/>
			<point x="178.3995361328" y="1500" type="line"/>
			<point x="720.8186645508" y="1500" type="line"/>
			<point x="717.4544067383" y="1407.3205566406" type="line"/>
			<point x="525.6387939453" y="1382.3205566406" type="line"/>
			<point x="581" y="1027" type="line"/>
			<point x="627" y="913" type="line"/>
			<point x="638" y="913" type="line"/>
			<point x="724" y="1027" type="line"/>
			<point x="1053.9836425781" y="1370.3205566406" type="line"/>
			<point x="884.9723510742" y="1407.3205566406" type="line"/>
			<point x="902.3366088867" y="1500" type="line"/>
			<point x="1377.7185058594" y="1500" type="line"/>
			<point x="1362.3542480469" y="1407.3205566406" type="line"/>
			<point x="1173.7451171875" y="1380.3205566406" type="line"/>
			<point x="670" y="808" type="line"/>
			<point x="923.4448852539" y="120.9995117188" type="line"/>
			<point x="1096.5757446289" y="94.9995117188" type="line"/>
			<point x="1085.6914672852" y="0" type="line"/>
			<point x="544.4952392578" y="0" type="line"/>
			<point x="555.3795166016" y="94.9995117188" type="line"/>
			<point x="742.3146972656" y="119.9995117188" type="line"/>
			<point x="603" y="544" type="line"/>
			<point x="556" y="658" type="line"/>
			<point x="546" y="658" type="line"/>
			<point x="461" y="544" type="line"/>
			<point x="171.5556030273" y="122.9995117188" type="line"/>
			<point x="354.5668945312" y="99.9995117188" type="line"/>
			<point x="345.2623901367" y="0" type="line"/>
		</contour>
	</outline>
	<anchor name="bottom" x="453" y="0"/>
	<anchor name="top" x="723" y="1500"/>
	<anchor name="cy_descender" x="1125" y="100"/>
	<anchor name="center" x="591" y="791"/>
</glyph>
<glyph name="b" format="2">
	<unicode hex="0062"/>
	<advance width="1088"/>
	<outline>
		<contour>
			<point x="73.1746826172" y="229" type="qcurve" smooth="yes"/>
			<point x="168.3799438477" y="644" type="line"/>
			<point x="341.8697509766" y="1416.9423217773" type="line"/>
			<point x="237.474609375" y="1440.9423217773" type="line"/>
			<point x="257.0192871094" y="1503.4857788086" type="line"/>
			<point x="481.7460327148" y="1565.4857788086" type="line"/>
			<point x="525.8208007812" y="1513.1541748047" type="line"/>
			<point x="324.6578979492" y="631" type="line"/>
			<point x="225.4526367188" y="177" type="line" smooth="yes"/>
			<point x="213.2766113281" y="119.8134765625"/>
			<point x="262.0384521484" y="89.3709106445"/>
			<point x="316.186706543" y="89.3709106445" type="qcurve" smooth="yes"/>
			<point x="541.5868530273" y="89.3709106445"/>
			<point x="800.8468017578" y="423.9995117188"/>
			<point x="814.2506103516" y="665.9995117188" type="qcurve" smooth="yes"/>
			<point x="824.4732666016" y="815.2788696289"/>
			<point x="763.1510620117" y="888.3263549805"/>
			<point x="689.3638305664" y="888.3263549805" type="qcurve" smooth="yes"/>
			<point x="587.6754760742" y="888.3263549805"/>
			<point x="350.7661132812" y="695.7659912109"/>
			<point x="263.3735351562" y="579.7489624023" type="qcurve"/>
			<point x="293.7160644531" y="738.2745361328" type="line"/>
			<point x="366.9067382812" y="844.2321166992"/>
			<point x="641.4927978516" y="1023.9995117188"/>
			<point x="753.9963378906" y="1023.9995117188" type="qcurve" smooth="yes"/>
			<point x="865.2121582031" y="1023.9995117188"/>
			<point x="1004.3544311523" y="856.9995117188"/>
			<point x="994.0411987305" y="671.9995117188" type="qcurve" smooth="yes"/>
			<point x="980.7203979492" y="405.9995117188"/>
			<point x="597.1661376953" y="-19"/>
			<point x="295.6494750977" y="-19" type="qcurve" smooth="yes"/>
			<point x="176.6841430664" y="-19"/>
			<point x="43.1746826172" y="102"/>
		</contour>
	</outline>
	<anchor name="bottom" x="571" y="0"/>
	<anchor name="top" x="571" y="1533"/>
</glyph>
<glyph name="d" format="2">
	<unicode hex="0064"/>
	<advance width="1055"/>
	<outline>
		<contour>
			<point x="-27.9995727539" y="310.2379760742" type="qcurve" smooth="yes"/>
			<point x="-0.9995727539" y="560.1901855469"/>
			<point x="401.3532104492" y="993.5987548828"/>
			<point x="716.4298095703" y="997.9994506836" type="qcurve" smooth="yes"/>
			<point x="796.0453491211" y="997.9994506836" type="line"/>
			<point x="884.7755126953" y="1420.8270874023" type="line"/>
			<point x="749.1989135742" y="1438.6450195312" type="line"/>
			<point x="770.7435913086" y="1502.1884765625" type="line"/>
			<point x="1013.9061279297" y="1569.1884765625" type="line"/>
			<point x="1063.9040527344" y="1523.5747680664" type="line"/>
			<point x="822.5358886719" y="469" type="line"/>
			<point x="765.7173461914" y="142.0884399414" type="line"/>
			<point x="887.9310302734" y="132.0884399414" type="line"/>
			<point x="873.9310302734" y="44" type="line"/>
			<point x="699.1284790039" y="-12" type="line"/>
			<point x="622.283203125" y="115.2800292969" type="line"/>
			<point x="626.8624267578" y="187.5816040039" type="line"/>
			<point x="566.9083862305" y="98.8362426758"/>
			<point x="305.573425293" y="-12"/>
			<point x="198.6057739258" y="-12" type="qcurve" smooth="yes"/>
			<point x="87.4583129883" y="-12"/>
			<point x="-44.9995727539" y="152.5237426758"/>
		</contour>
		<contour>
			<point x="135.9194335938" y="300.2379760742" type="qcurve" smooth="yes"/>
			<point x="125.9194335938" y="193.3834228516"/>
			<point x="189.0479125977" y="96.4175415039"/>
			<point x="257.8247680664" y="97.4175415039" type="qcurve" smooth="yes"/>
			<point x="372.3277587891" y="99.4175415039"/>
			<point x="620.2606201172" y="249"/>
			<point x="655.5653076172" y="403" type="qcurve" smooth="yes"/>
			<point x="743.5986938477" y="766.8612670898" type="line"/>
			<point x="758.5156860352" y="839.8612670898"/>
			<point x="727.0163574219" y="870.8612670898"/>
			<point x="618.4143066406" y="870.8612670898" type="qcurve" smooth="yes"/>
			<point x="424.6602172852" y="870.8612670898"/>
			<point x="150.9194335938" y="476.1901855469"/>
		</contour>
	</outline>
	<anchor name="bottom" x="604" y="0"/>
	<anchor name="center" x="876" y="1202"/>
	<anchor name="top" x="704" y="1534"/>
	<anchor name="topright" x="1076" y="1000"/>
	<anchor name="liga" x="1067" y="0"/>
</glyph>
<glyph name="e" format="2">
	<unicode hex="0065"/>
	<advance width="958"/>
	<outline>
		<contour>
			<point x="29.3651925701" y="515.0920410156" type="qcurve" smooth="yes"/>
			<point x="99.3507882732" y="759.1846313477"/>
			<point x="413.0033761639" y="1021.0471191406"/>
			<point x="601.9084054607" y="1021.0471191406" type="qcurve" smooth="yes"/>
			<point x="742.6873971599" y="1021.0471191406"/>
			<point x="864.0847360271" y="903.0311279297"/>
			<point x="863.0033151287" y="810.4018554688" type="qcurve" smooth="yes"/>
			<point x="861.1846505779" y="754.924987793"/>
			<point x="837.2426950115" y="644.2004394531"/>
			<point x="830.6601144451" y="601.305480957" type="qcurve"/>
			<point x="843.5614816326" y="588.3287963867" type="line"/>
			<point x="820.5905954021" y="505.1901855469" type="line"/>
			<point x="786.7059518474" y="509.7227172852"/>
			<point x="597.2999267578" y="508.1901855469"/>
			<point x="532.2883493084" y="508.1901855469" type="qcurve" smooth="yes"/>
			<point x="147.9334106445" y="506.1901855469" type="line"/>
			<point x="177.9658395428" y="599.9931640625" type="line"/>
			<point x="652.3266183514" y="604.0032348633" type="line"/>
			<point x="658.2498971599" y="619.7941894531"/>
			<point x="683.2576486248" y="750.6530761719"/>
			<point x="682.3006173748" y="809.7219848633" type="qcurve" smooth="yes"/>
			<point x="680.4557077068" y="869.3502197266"/>
			<point x="618.1065255779" y="919.5134277344"/>
			<point x="554.906574406" y="919.5134277344" type="qcurve" smooth="yes"/>
			<point x="443.3345529217" y="919.5134277344"/>
			<point x="238.7131539959" y="679.0914916992"/>
			<point x="187.9605905193" y="479.1901855469" type="qcurve" smooth="yes"/>
			<point x="139.5674630779" y="292.9135742188"/>
			<point x="205.4797363281" y="102.020324707"/>
			<point x="349.9645996094" y="99.715637207" type="qcurve" smooth="yes"/>
			<point x="483.7799072266" y="97.7365112305"/>
			<point x="692.0248413086" y="244.5561523438"/>
			<point x="752.6789550781" y="302.7943115234" type="qcurve"/>
			<point x="816.4351388592" y="267.5440673828" type="line"/>
			<point x="821.2422067303" y="231.0352783203" type="line"/>
			<point x="758.1943359375" y="158.6079101562"/>
			<point x="485.4755859375" y="-13"/>
			<point x="300.3703805584" y="-8.4024047852" type="qcurve" smooth="yes"/>
			<point x="106.8325805664" y="-4.6287231445"/>
			<point x="-42.809856258" y="265.5933837891"/>
		</contour>
	</outline>
	<anchor name="bottom" x="339" y="0"/>
	<anchor name="ogonek" x="495" y="0"/>
	<anchor name="top" x="601" y="1000"/>
</glyph>
<glyph name="f" format="2">
	<unicode hex="0066"/>
	<advance width="600"/>
	<outline>
		<contour>
			<point x="-336.7066650391" y="-408.4792480469" type="line" smooth="yes"/>
			<point x="-322.4088134766" y="-344.1181640625" type="line"/>
			<point x="-238.9791870117" y="-342.9965820312" type="line" smooth="yes"/>
			<point x="-101.833190918" y="-341.875"/>
			<point x="2.3661499023" y="-191.3908081055"/>
			<point x="29.7035522461" y="-35.3908081055" type="qcurve" smooth="yes"/>
			<point x="189.71875" y="878.4183349609" type="line"/>
			<point x="198.2790527344" y="913.7901000977" type="line"/>
			<point x="260.9696655273" y="1218.4586181641" type="line" smooth="yes"/>
			<point x="299.776184082" y="1409.9724731445"/>
			<point x="443.5474243164" y="1531.4586181641"/>
			<point x="552.8423461914" y="1531.4586181641" type="qcurve" smooth="yes"/>
			<point x="626.3397827148" y="1531.4586181641"/>
			<point x="736.9739379883" y="1478.4586181641"/>
			<point x="736.9739379883" y="1419.4586181641" type="qcurve" smooth="yes"/>
			<point x="736.9739379883" y="1382.4586181641"/>
			<point x="689.1286621094" y="1336.4586181641"/>
			<point x="661.1286621094" y="1336.4586181641" type="qcurve" smooth="yes"/>
			<point x="640.1286621094" y="1336.4586181641"/>
			<point x="614.1286621094" y="1355.4586181641"/>
			<point x="608.1286621094" y="1378.4586181641" type="qcurve" smooth="yes"/>
			<point x="601.1286621094" y="1387.692199707"/>
			<point x="564.3753662109" y="1427.5993652344"/>
			<point x="535.48046875" y="1427.5993652344" type="qcurve" smooth="yes"/>
			<point x="498.9661865234" y="1427.5993652344"/>
			<point x="436.0270996094" y="1356.0942993164"/>
			<point x="408.7097167969" y="1210.4586181641" type="qcurve" smooth="yes"/>
			<point x="352.8189697266" y="909.1389770508" type="line"/>
			<point x="354.6137084961" y="890.0461425781" type="line"/>
			<point x="208.0756835938" y="73.5207519531" type="line" smooth="yes"/>
			<point x="151.7289428711" y="-238.5870361328"/>
			<point x="-4.4411621094" y="-468.7828979492"/>
			<point x="-212.4915771484" y="-468.4792480469" type="qcurve"/>
		</contour>
		<contour>
			<point x="67.5117797852" y="881.0698852539" type="line"/>
			<point x="80.5350952148" y="965.8134155273" type="line"/>
			<point x="234.0234375" y="994.2318115234" type="line"/>
			<point x="557.2233276367" y="997.4874267578" type="line"/>
			<point x="532.7583007812" y="883.0932006836" type="line"/>
			<point x="297.9434814453" y="890.8604736328" type="line"/>
			<point x="260.7918701172" y="870.4813842773" type="line"/>
		</contour>
	</outline>
	<anchor name="bottom" x="217" y="0"/>
	<anchor name="top" x="554" y="1536"/>
</glyph>
<glyph name="g" format="2">
	<unicode hex="0067"/>
	<advance width="1065"/>
	<outline>
		<contour>
			<point x="-22.9675292969" y="321.6666259766" type="qcurve" smooth="yes"/>
			<point x="-11.3410644531" y="553.890625"/>
			<point x="359.6844482422" y="1003.4279785156"/>
			<point x="573.0871582031" y="1003.4279785156" type="qcurve" smooth="yes"/>
			<point x="651.5173339844" y="1003.4279785156"/>
			<point x="748.442199707" y="932.4279785156"/>
			<point x="769.8723754883" y="906.4279785156" type="qcurve"/>
			<point x="812.9966430664" y="1001.4279785156" type="line"/>
			<point x="882.2008666992" y="1001.4279785156" type="line"/>
			<point x="916.6168823242" y="853.0731811523" type="line"/>
			<point x="824.6195678711" y="490" type="line" smooth="yes"/>
			<point x="783.8612670898" y="322.0440063477"/>
			<point x="756.2369995117" y="186.8836669922"/>
			<point x="709.0634155273" y="0.8836669922" type="qcurve" smooth="yes"/>
			<point x="639.0634155273" y="-272.9918212891"/>
			<point x="317.3162841797" y="-469.1163330078"/>
			<point x="116.5955810547" y="-469.1163330078" type="qcurve"/>
			<point x="20.3956298828" y="-409.1163330078" type="line"/>
			<point x="37.5773925781" y="-344.7546386719" type="line"/>
			<point x="142.5289306641" y="-342.7552490234" type="line" smooth="yes"/>
			<point x="344.7964477539" y="-340.3423461914"/>
			<point x="501.7012939453" y="-168.5972290039"/>
			<point x="551.5216674805" y="3.7909545898" type="qcurve" smooth="yes"/>
			<point x="595.4680786133" y="152.9018554688" type="line"/>
			<point x="542.6306152344" y="102.3825683594"/>
			<point x="332.2380371094" y="-14"/>
			<point x="220.9622192383" y="-14" type="qcurve" smooth="yes"/>
			<point x="113.3967285156" y="-14"/>
			<point x="-34.4543457031" y="141.3442382812"/>
		</contour>
		<contour>
			<point x="143.2453613281" y="323.6666259766" type="qcurve" smooth="yes"/>
			<point x="132.6755371094" y="195.0947875977"/>
			<point x="217.9567871094" y="101.4185180664"/>
			<point x="300.3718261719" y="101.4185180664" type="qcurve" smooth="yes"/>
			<point x="412.8463745117" y="101.4185180664"/>
			<point x="608.8926391602" y="261.9463500977"/>
			<point x="652.2117919922" y="443.2710571289" type="qcurve" smooth="yes"/>
			<point x="740.1915283203" y="786.2664794922" type="line"/>
			<point x="728.4971923828" y="821.2664794922"/>
			<point x="631.8073730469" y="888.2664794922"/>
			<point x="549.3418579102" y="888.2664794922" type="qcurve" smooth="yes"/>
			<point x="387.5510253906" y="888.2664794922"/>
			<point x="153.78125" y="482.8286132812"/>
		</contour>
	</outline>
	<anchor name="bottom" x="324" y="-416"/>
	<anchor name="top" x="603" y="1000"/>
</glyph>
<glyph name="l" format="2">
	<unicode hex="006C"/>
	<advance width="555"/>
	<outline>
		<contour>
			<point x="70.3717651367" y="-22" type="line"/>
			<point x="16.6549072266" y="68.1000366211" type="line"/>
			<point x="140.1422729492" y="587" type="line"/>
			<point x="313.6598510742" y="1419.7362060547" type="line"/>
			<point x="189.0832519531" y="1443.6450195312" type="line"/>
			<point x="208.6279296875" y="1508.1884765625" type="line"/>
			<point x="438.7904663086" y="1572.2905883789" type="line"/>
			<point x="496.2241821289" y="1516.958984375" type="line"/>
			<point x="291.4202270508" y="568" type="line"/>
			<point x="189.8743286133" y="133.9975585938" type="line"/>
			<point x="338.8153686523" y="135.9975585938" type="line"/>
			<point x="336.8153686523" y="54" type="line"/>
		</contour>
	</outline>
	<anchor name="bottom" x="201" y="0"/>
	<anchor name="center" x="236" y="770"/>
	<anchor name="top" x="436" y="1534"/>
	<anchor name="topright" x="492" y="1000"/>
	<anchor name="centerright" x="707" y="742"/>
	<anchor name="liga" x="567" y="0"/>
</glyph>
<glyph name="n" format="2">
	<unicode hex="006E"/>
	<advance width="1168"/>
	<outline>
		<contour>
			<point x="59.0725097656" y="-29.0729980469" type="line"/>
			<point x="22.7849121094" y="31.9270019531" type="line"/>
			<point x="144.9995117188" y="584" type="line"/>
			<point x="197.6536254883" y="872.1840209961" type="line"/>
			<point x="58.8034667969" y="872.1840209961" type="line"/>
			<point x="76.7471313477" y="977.9995117188" type="line"/>
			<point x="295.8338623047" y="1006.9630126953" type="line"/>
			<point x="343.6275634766" y="1006.9630126953" type="line"/>
			<point x="316.3687744141" y="687.8491210938" type="line"/>
			<point x="312.9953613281" y="639" type="line"/>
			<point x="209.7807617188" y="120.9270019531" type="line"/>
			<point x="269.068359375" y="17.9270019531" type="line"/>
		</contour>
		<contour>
			<point x="711.2772216797" y="-17" type="line"/>
			<point x="662.6859741211" y="66" type="line"/>
			<point x="814.0736083984" y="710.5970458984" type="line" smooth="yes"/>
			<point x="832.278503418" y="789.3460083008"/>
			<point x="778.2243041992" y="887.6611938477"/>
			<point x="695.8565063477" y="887.6611938477" type="qcurve" smooth="yes"/>
			<point x="600.6655273438" y="887.6611938477"/>
			<point x="377.1332397461" y="695.5619506836"/>
			<point x="238.4376220703" y="494.8924560547" type="qcurve"/>
			<point x="225.8751831055" y="597.1785888672" type="line"/>
			<point x="352.2473144531" y="810.1333007812"/>
			<point x="649.2991333008" y="1029.9998779297"/>
			<point x="784.4208374023" y="1029.9998779297" type="qcurve" smooth="yes"/>
			<point x="897.8056640625" y="1029.9998779297"/>
			<point x="1001.0142211914" y="864.110534668"/>
			<point x="962.3272094727" y="696.9998779297" type="qcurve" smooth="yes"/>
			<point x="831.3552246094" y="131.9975585938" type="line"/>
			<point x="952.2053833008" y="131.9975585938" type="line"/>
			<point x="950.2053833008" y="43" type="line"/>
		</contour>
	</outline>
	<anchor name="bottom" x="522" y="0"/>
	<anchor name="top" x="602" y="1000"/>
	<anchor name="liga" x="1173" y="0"/>
</glyph>
<glyph name="p" format="2">
	<unicode hex="0070"/>
	<advance width="1074"/>
	<outline>
		<contour>
			<point x="-78.9095458984" y="-372.2992553711" type="line"/>
			<point x="133.3270263672" y="487" type="line"/>
			<point x="184.8363037109" y="720.6380004883" type="line"/>
			<point x="127.9647216797" y="943.6895751953" type="line"/>
			<point x="213.7310791016" y="1010.7138061523" type="line"/>
			<point x="297.1658325195" y="1010.7138061523" type="line"/>
			<point x="333.3809204102" y="764.1251831055" type="line"/>
			<point x="412.0102539062" y="872.0346069336"/>
			<point x="631.3225097656" y="1023.7138061523"/>
			<point x="738.8037719727" y="1023.7138061523" type="qcurve" smooth="yes"/>
			<point x="863.0543823242" y="1023.7138061523"/>
			<point x="994.0391235352" y="884.4143676758"/>
			<point x="983.5108032227" y="688.3806762695" type="qcurve" smooth="yes"/>
			<point x="974.3635864258" y="429.6188964844"/>
			<point x="548.1729125977" y="-6"/>
			<point x="328.1585083008" y="-6" type="qcurve" smooth="yes"/>
			<point x="283.3811645508" y="-6"/>
			<point x="202.5208129883" y="13"/>
			<point x="178.7849731445" y="28" type="qcurve"/>
			<point x="95.2724609375" y="-336.0435180664" type="line"/>
			<point x="215.8490600586" y="-349.4979248047" type="line"/>
			<point x="192.3043823242" y="-437.0413818359" type="line"/>
			<point x="14.0902709961" y="-474.9898071289" type="line"/>
		</contour>
		<contour>
			<point x="220.6917114258" y="217.1614990234" type="line"/>
			<point x="201.6917114258" y="135.1614990234"/>
			<point x="268.9331665039" y="93.1614990234"/>
			<point x="339.2236938477" y="93.1614990234" type="qcurve" smooth="yes"/>
			<point x="512.2091064453" y="93.1614990234"/>
			<point x="800.9437255859" y="451.3807983398"/>
			<point x="809.4381103516" y="684.3806762695" type="qcurve" smooth="yes"/>
			<point x="817.5286865234" y="829.5710449219"/>
			<point x="749.0947875977" y="911.5056762695"/>
			<point x="673.1866455078" y="911.5056762695" type="qcurve" smooth="yes"/>
			<point x="585.7301025391" y="911.5056762695"/>
			<point x="376.6235351562" y="718.5289916992"/>
			<point x="321.9335327148" y="638.5289916992" type="qcurve"/>
			<point x="279.7849731445" y="473" type="line"/>
		</contour>
	</outline>
	<anchor name="bottom" x="599" y="0"/>
	<anchor name="top" x="599" y="1000"/>
</glyph>
<glyph name="q" format="2">
	<unicode hex="0071"/>
	<advance width="1087"/>
	<outline>
		<contour>
			<point x="-5.0642089844" y="271.2380371094" type="qcurve" smooth="yes"/>
			<point x="-4.611328125" y="514.9044799805"/>
			<point x="409.1776123047" y="1008.4279785156"/>
			<point x="622.4946899414" y="1008.4279785156" type="qcurve" smooth="yes"/>
			<point x="693.8833618164" y="1008.4279785156"/>
			<point x="771.1814575195" y="957.4279785156"/>
			<point x="790.7437133789" y="925.4279785156" type="qcurve"/>
			<point x="866.3413696289" y="1019.4279785156" type="line"/>
			<point x="932.0329589844" y="1019.4279785156" type="line"/>
			<point x="896.6466674805" y="721.5342407227" type="line"/>
			<point x="850.580078125" y="508" type="line"/>
			<point x="683.6400146484" y="-322.1343994141" type="line"/>
			<point x="790.9439697266" y="-353.4979248047" type="line"/>
			<point x="764.3992919922" y="-445.0413818359" type="line"/>
			<point x="641.6209716797" y="-481.9382324219" type="line"/>
			<point x="513.8657836914" y="-372.606628418" type="line"/>
			<point x="633.686340332" y="175" type="line"/>
			<point x="627.686340332" y="180" type="line"/>
			<point x="567.0733642578" y="100.1904907227"/>
			<point x="364.1963500977" y="-14"/>
			<point x="244.4550170898" y="-14" type="qcurve" smooth="yes"/>
			<point x="139.1531982422" y="-14"/>
			<point x="-6.2038574219" y="122.4748535156"/>
		</contour>
		<contour>
			<point x="162.2905883789" y="269.2380371094" type="qcurve" smooth="yes"/>
			<point x="157.5471801758" y="170.0532226562"/>
			<point x="243.0469360352" y="97.7431030273"/>
			<point x="312.1130981445" y="97.7431030273" type="qcurve" smooth="yes"/>
			<point x="430.6450805664" y="97.7431030273"/>
			<point x="641.5975341797" y="257.9009399414"/>
			<point x="674.8147583008" y="419" type="qcurve" smooth="yes"/>
			<point x="762.6221923828" y="802.9176025391" type="line"/>
			<point x="756.2335205078" y="841.4383544922"/>
			<point x="670.0596313477" y="885.9176025391"/>
			<point x="610.9841918945" y="885.9176025391" type="qcurve" smooth="yes"/>
			<point x="457.2041015625" y="885.9176025391"/>
			<point x="169.6943969727" y="479.9714355469"/>
		</contour>
	</outline>
	<anchor name="bottom" x="594" y="0"/>
	<anchor name="top" x="594" y="1000"/>
</glyph>
<glyph name="r" format="2">
	<unicode hex="0072"/>
	<advance width="842"/>
	<outline>
		<contour>
			<point x="91.2786254883" y="-21.1992797852" type="line"/>
			<point x="26.9591064453" y="63.6550292969" type="line"/>
			<point x="141.6773071289" y="526.6811523438" type="line"/>
			<point x="191.7541503906" y="867.0954589844" type="line"/>
			<point x="55.7477416992" y="864.6499633789" type="line"/>
			<point x="76.9295043945" y="973.0549316406" type="line"/>
			<point x="258.3040771484" y="1003.8157348633" type="line"/>
			<point x="326.1458129883" y="1004.6254882812" type="line"/>
			<point x="356.8212280273" y="924.8795776367" type="line"/>
			<point x="296.0576171875" y="551.923034668" type="line"/>
			<point x="218.6040649414" y="140.0380249023" type="line"/>
			<point x="318.3781738281" y="121.1964111328" type="line"/>
			<point x="315.0101318359" y="34.1240234375" type="line"/>
		</contour>
		<contour>
			<point x="667.9896680821" y="665.4342041016" type="line"/>
			<point x="648.6946707281" y="858.452728635" type="line"/>
			<point x="549.5670258747" y="858.452728635"/>
			<point x="350.9217873154" y="689.3442102783"/>
			<point x="249.5759743257" y="559.0392154515" type="qcurve"/>
			<point x="258.8172607422" y="655.4374389648" type="line"/>
			<point x="353.7729194399" y="787.6486017317"/>
			<point x="596.2235502503" y="1018.9401855469"/>
			<point x="708.8195800781" y="1018.9401855469" type="qcurve" smooth="yes"/>
			<point x="767.114626146" y="1018.9401855469"/>
			<point x="813.4934692383" y="998.4090358124"/>
			<point x="813.4934692383" y="946.3244628906" type="qcurve" smooth="yes"/>
			<point x="813.4934692383" y="836.5334715954"/>
			<point x="745.0067670394" y="659.6400979304"/>
			<point x="696.1773071289" y="661.6777954102" type="qcurve" smooth="yes"/>
		</contour>
	</outline>
	<anchor name="bottom" x="282" y="0"/>
	<anchor name="top" x="486" y="1000"/>
</glyph>
<glyph name="t" format="2">
	<unicode hex="0074"/>
	<advance width="582"/>
	<outline>
		<contour>
			<point x="106.9338378906" y="-15" type="line"/>
			<point x="13.8590698242" y="63" type="line"/>
			<point x="114.8590698242" y="538" type="line"/>
			<point x="172.6768188477" y="871.7095336914" type="line"/>
			<point x="42.0357666016" y="886.5811157227" type="line"/>
			<point x="56.9891357422" y="972.1851806641" type="line"/>
			<point x="184.2664794922" y="986.6528930664"/>
			<point x="264.1623535156" y="1207.0701904297"/>
			<point x="288.526184082" y="1304.9995117188" type="qcurve"/>
			<point x="374.0174560547" y="1304.9995117188" type="line"/>
			<point x="399.6322021484" y="1242.8721313477" type="line"/>
			<point x="271.5802001953" y="510" type="line"/>
			<point x="200.8563842773" y="128.1796264648" type="line"/>
			<point x="342.981628418" y="134.1796264648" type="line"/>
			<point x="342.981628418" y="48" type="line"/>
		</contour>
		<contour>
			<point x="275.333984375" y="882.3717041016" type="line"/>
			<point x="313.54296875" y="997.2780151367" type="line"/>
			<point x="564.8793334961" y="1002.1614379883" type="line"/>
			<point x="541.5537719727" y="908.3717041016" type="line"/>
		</contour>
	</outline>
	<anchor name="bottom" x="149" y="0"/>
	<anchor name="center" x="262" y="622"/>
	<anchor name="top" x="322" y="1179"/>
	<anchor name="topright" x="600" y="920"/>
</glyph>
<glyph name="v" format="2">
	<unicode hex="0076"/>
	<advance width="945"/>
	<outline>
		<contour>
			<point x="228.8871459961" y="-26.4287109375" type="line"/>
			<point x="174.0381469727" y="539.001953125" type="line"/>
			<point x="141.4874267578" y="862.8796386719" type="line"/>
			<point x="43.8956298828" y="863.2431640625" type="line"/>
			<point x="47.0773925781" y="966.0586547852" type="line"/>
			<point x="197.3161621094" y="1007.2376098633" type="line"/>
			<point x="283.4720458984" y="1007.2376098633" type="line"/>
			<point x="319.712890625" y="588.2727050781" type="line"/>
			<point x="354.8936157227" y="259.9033203125" type="line"/>
			<point x="358.0672607422" y="174.2763061523" type="line"/>
			<point x="364.0672607422" y="174.2763061523" type="line"/>
			<point x="418.9212646484" y="256.8792114258" type="line"/>
			<point x="565.2811889648" y="464.1896972656"/>
			<point x="706.6679077148" y="699.6522827148"/>
			<point x="706.6679077148" y="753.7886352539" type="qcurve" smooth="yes"/>
			<point x="706.6679077148" y="826.3518066406"/>
			<point x="599.6206054688" y="928.9689941406"/>
			<point x="601.6206054688" y="974.295715332" type="qcurve" smooth="yes"/>
			<point x="602.6206054688" y="1012.7407836914"/>
			<point x="657.1337890625" y="1059.3572998047"/>
			<point x="696.2224731445" y="1059.3572998047" type="qcurve" smooth="yes"/>
			<point x="754.2890625" y="1059.3572998047"/>
			<point x="850.4246826172" y="970.2776489258"/>
			<point x="850.4246826172" y="881.9247436523" type="qcurve" smooth="yes"/>
			<point x="850.4246826172" y="745.7852783203"/>
			<point x="591.6694946289" y="357.4981079102"/>
			<point x="311.51171875" y="-26.4287109375" type="qcurve"/>
		</contour>
	</outline>
	<anchor name="bottom" x="513" y="0"/>
	<anchor name="top" x="513" y="1000"/>
</glyph>
<glyph name="w" format="2">
	<unicode hex="0077"/>
	<advance width="1394"/>
	<outline>
		<contour>
			<point x="208.7518310547" y="-24" type="line"/>
			<point x="141.7420654297" y="513.424987793" type="line"/>
			<point x="97.9135742188" y="871.4221191406" type="line"/>
			<point x="-0.75390625" y="871.4221191406" type="line"/>
			<point x="-0.5721435547" y="971.2376098633" type="line"/>
			<point x="151.9116821289" y="1007.2376098633" type="line"/>
			<point x="243.0380249023" y="1007.2376098633" type="line"/>
			<point x="290.1119384766" y="609.3871459961" type="line"/>
			<point x="327.1116333008" y="236.2777099609" type="line"/>
			<point x="329.8929443359" y="168.490234375" type="line"/>
			<point x="335.8929443359" y="168.490234375" type="line"/>
			<point x="370.747253418" y="235.487121582" type="line"/>
			<point x="433.7755737305" y="344.7155761719"/>
			<point x="531.5661010742" y="540.8040771484"/>
			<point x="563.3910522461" y="601.4224243164" type="qcurve"/>
			<point x="513.4748535156" y="904.331237793" type="line"/>
			<point x="528.6148071289" y="925.026184082" type="line"/>
			<point x="509.7164916992" y="969.2376098633" type="line"/>
			<point x="629.6852416992" y="1009.2376098633" type="line"/>
			<point x="688.375793457" y="1009.2376098633" type="line"/>
			<point x="689.6556396484" y="897.9996948242" type="line"/>
			<point x="770.7100830078" y="225.6095581055" type="line"/>
			<point x="778.4203491211" y="155.7625732422" type="line"/>
			<point x="784.4203491211" y="155.7625732422" type="line"/>
			<point x="829.9258422852" y="221.8721923828" type="line"/>
			<point x="941.9615478516" y="384.2153930664"/>
			<point x="1114.0662841797" y="726.0504760742"/>
			<point x="1106.8873291016" y="796.2376098633" type="qcurve" smooth="yes"/>
			<point x="1099.7083740234" y="860.2376098633"/>
			<point x="976.2684936523" y="904.1112670898"/>
			<point x="975.5505981445" y="938.5217895508" type="qcurve" smooth="yes"/>
			<point x="974.8327026367" y="979.4954833984"/>
			<point x="1033.9337768555" y="1036.2376098633"/>
			<point x="1085.7274780273" y="1036.2376098633" type="qcurve" smooth="yes"/>
			<point x="1152.9691772461" y="999.7239990234"/>
			<point x="1255.6284179688" y="954.4691772461"/>
			<point x="1255.6284179688" y="869.2649536133" type="qcurve" smooth="yes"/>
			<point x="1255.6284179688" y="753.2376098633"/>
			<point x="875.6354370117" y="156.1954956055"/>
			<point x="738.2518920898" y="-26" type="qcurve"/>
			<point x="639.1892700195" y="-26" type="line"/>
			<point x="589.6126708984" y="401.4899902344" type="line"/>
			<point x="584.815246582" y="476.007019043" type="line"/>
			<point x="578.815246582" y="476.007019043" type="line"/>
			<point x="543.4531860352" y="401.0327148438" type="line"/>
			<point x="498.7936401367" y="320.255065918"/>
			<point x="375.7461547852" y="98.7776489258"/>
			<point x="296.0866088867" y="-24" type="qcurve"/>
		</contour>
	</outline>
	<anchor name="bottom" x="787" y="0"/>
	<anchor name="top" x="717" y="1000"/>
</glyph>
<glyph name="x" format="2">
	<unicode hex="0078"/>
	<advance width="993"/>
	<outline>
		<contour>
			<point x="25.5698242188" y="-17.1430664062" type="qcurve"/>
			<point x="-78.2941894531" y="42.8569335938" type="line"/>
			<point x="-77.1127319336" y="127.4906616211" type="line"/>
			<point x="85.0220947266" y="127.4906616211" type="line" smooth="yes"/>
			<point x="110.7904663086" y="127.0620727539"/>
			<point x="178.9476318359" y="191.7320556641"/>
			<point x="220.4105834961" y="246.8234863281" type="qcurve" smooth="yes"/>
			<point x="272.9451904297" y="318.971496582"/>
			<point x="357.5237426758" y="445.8256225586"/>
			<point x="388.8157958984" y="496.9725341797" type="qcurve"/>
			<point x="249.4183959961" y="870.0713500977" type="line"/>
			<point x="132.5697631836" y="869.707824707" type="line"/>
			<point x="135.7515258789" y="972.5233154297" type="line"/>
			<point x="310.5540771484" y="1011.5233154297" type="line"/>
			<point x="383.8856811523" y="995.5233154297" type="line"/>
			<point x="464.9105224609" y="714.7630004883" type="line"/>
			<point x="479.7067871094" y="653.5040893555" type="line"/>
			<point x="485.7067871094" y="653.5040893555" type="line"/>
			<point x="520.2166748047" y="713.9421386719" type="line" smooth="yes"/>
			<point x="557.495300293" y="777.2322998047"/>
			<point x="608.3724365234" y="851.3793334961"/>
			<point x="645.9791870117" y="902.1958007812" type="qcurve" smooth="yes"/>
			<point x="689.0858154297" y="960.0042724609"/>
			<point x="776.3017578125" y="1029.3804931641"/>
			<point x="812.7961425781" y="1029.3804931641" type="qcurve" smooth="yes"/>
			<point x="858.8582763672" y="1029.3804931641"/>
			<point x="928.5786743164" y="973.3494262695"/>
			<point x="928.5786743164" y="919.3494262695" type="qcurve" smooth="yes"/>
			<point x="928.5786743164" y="866.3494262695"/>
			<point x="864.6097412109" y="794.3804931641"/>
			<point x="817.6097412109" y="794.3804931641" type="qcurve"/>
			<point x="785.6097412109" y="836.3804931641" type="line"/>
			<point x="785.2841796875" y="855.4892578125" type="line" smooth="yes"/>
			<point x="784.6330566406" y="871.67578125"/>
			<point x="769.7958374023" y="885.1486206055"/>
			<point x="757.8522338867" y="885.1486206055" type="qcurve" smooth="yes"/>
			<point x="738.0758056641" y="885.1486206055"/>
			<point x="664.7365112305" y="798.7396240234"/>
			<point x="636.5032348633" y="755.8798217773" type="qcurve" smooth="yes"/>
			<point x="587.4725952148" y="679.5614013672"/>
			<point x="544.5364990234" y="613.4636230469"/>
			<point x="514.8088378906" y="561.6130371094" type="qcurve"/>
			<point x="655.844543457" y="127.2830810547" type="line"/>
			<point x="786.3296508789" y="127.2830810547" type="line"/>
			<point x="800.3296508789" y="53.2855224609" type="line"/>
			<point x="608.5786743164" y="-21.7144775391" type="line"/>
			<point x="518.4776000977" y="24.2855224609" type="line"/>
			<point x="431.9030761719" y="356.5277099609" type="line"/>
			<point x="420.4378662109" y="408.2206420898" type="line"/>
			<point x="414.4378662109" y="408.2206420898" type="line"/>
			<point x="383.592590332" y="357.496887207" type="line"/>
			<point x="345.7670898438" y="294.7074584961"/>
			<point x="286.5551757812" y="198.7520751953"/>
			<point x="251.1999511719" y="148.2999267578" type="qcurve" smooth="yes"/>
			<point x="190.0301513672" y="61.1527099609"/>
			<point x="75.4411010742" y="-20.5614624023"/>
		</contour>
	</outline>
	<anchor name="bottom" x="522" y="0"/>
	<anchor name="top" x="522" y="1000"/>
	<anchor name="cy_descender" x="832" y="134"/>
	<anchor name="center" x="432" y="502"/>
</glyph>
<glyph name="idotless" format="2">
	<unicode hex="0131"/>
	<advance width="602"/>
	<outline>
		<contour>
			<point x="116.653503418" y="-17" type="line"/>
			<point x="62.0903320312" y="94.1516113281" type="line"/>
			<point x="152.7244873047" y="529.0950927734" type="line"/>
			<point x="217.0107421875" y="874.707824707" type="line"/>
			<point x="68.4332275391" y="866.707824707" type="line"/>
			<point x="87.6149902344" y="973.5233154297" type="line"/>
			<point x="321.8038330078" y="1011.5233154297" type="line"/>
			<point x="378.8280639648" y="997.5233154297" type="line"/>
			<point x="406.544921875" y="931.3211669922" type="line"/>
			<point x="358.493347168" y="761.5233154297" type="line"/>
			<point x="300.8487548828" y="482.1213989258" type="line"/>
			<point x="228.2469482422" y="131.9975585938" type="line"/>
			<point x="379.8918457031" y="131.9975585938" type="line"/>
			<point x="378.8918457031" y="43" type="line"/>
		</contour>
	</outline>
	<anchor name="bottom" x="180" y="0"/>
	<anchor name="top" x="320" y="1000"/>
	<anchor name="ogonek" x="180" y="0"/>
	<anchor name="yu_dash" x="239" y="498"/>
	<anchor name="liga" x="618" y="0"/>
</glyph>
<glyph name="jdotless" format="2">
	<unicode hex="0237"/>
	<advance width="595"/>
	<outline>
		<contour>
			<point x="261.2112426758" y="879.1840209961" type="qcurve"/>
			<point x="107.9066772461" y="869.1840209961" type="line"/>
			<point x="125.0884399414" y="972.9995117188" type="line"/>
			<point x="361.4825439453" y="1012.9995117188" type="line"/>
			<point x="424.0962524414" y="997.9995117188" type="line"/>
			<point x="452.8899536133" y="925.1563110352" type="line"/>
			<point x="396.4541625977" y="744.9995117188" type="line"/>
			<point x="259.6007080078" y="94" type="line"/>
			<point x="193.6007080078" y="-221.3036499023"/>
			<point x="-1.3950195312" y="-475"/>
			<point x="-220.4892578125" y="-475" type="qcurve"/>
			<point x="-339.8907470703" y="-416" type="line"/>
			<point x="-322.2548828125" y="-350.1845092773" type="line"/>
			<point x="-223.8533935547" y="-350.002746582" type="line" smooth="yes"/>
			<point x="-79.7964477539" y="-349.6990966797"/>
			<point x="49.5480957031" y="-163.0954589844"/>
			<point x="104.0028076172" y="89.9978637695" type="qcurve" smooth="yes"/>
			<point x="147.9122314453" y="291"/>
			<point x="242.483581543" y="756.9995117188"/>
		</contour>
	</outline>
	<anchor name="bottom" x="88" y="-436"/>
	<anchor name="top" x="320" y="1000"/>
	<anchor name="_liga" x="0" y="0"/>
</glyph>
